<?xml version="1.0" encoding="UTF-8" standalone="no"?>
<!DOCTYPE svg PUBLIC "-//W3C//DTD SVG 1.1//EN" "http://www.w3.org/Graphics/SVG/1.1/DTD/svg11.dtd">
<svg width="100%" height="100%" viewBox="0 0 1036 857" version="1.1" xmlns="http://www.w3.org/2000/svg" xmlns:xlink="http://www.w3.org/1999/xlink" xml:space="preserve" xmlns:serif="http://www.serif.com/" style="fill-rule:evenodd;clip-rule:evenodd;stroke-linejoin:round;stroke-miterlimit:2;">
    <g transform="matrix(1,0,0,1,-2560.29,-3883.03)">
        <g transform="matrix(1,0,0,1,2099.81,3771.49)">
            <path d="M977.477,764.544C977.475,764.527 945.477,830.544 945.477,830.544C943.639,831.76 917.956,869.895 915.477,871.544C913.946,873.857 874.39,905.99 873.35,906.71C871.522,909.474 858.415,917.59 855.477,919.544C854.885,920.57 823.517,935.823 822.477,936.544C821.427,938.131 782.477,948.544 782.477,948.544C782.022,949.23 746.477,958.544 746.477,958.544C745.066,960.675 704.708,966.702 703.477,968.544L648.477,968.544C639.747,967.349 590.493,953.32 587.477,951.544L546.477,931.544C543.966,930.313 522.942,913.183 520.477,911.544C518.305,908.293 501.644,892.329 498.477,887.544C496.664,886.338 490.679,874.361 489.477,872.544C488.451,871.951 480.567,855.022 480.477,854.544C479.192,853.802 471.323,825.779 467.477,812.544C467.477,812.544 460.58,750.465 460.477,746.544C460.477,746.544 462.393,687.747 462.477,685.544C462.477,685.544 465.316,660.622 465.477,660.544L468.477,632.544C471.176,617.177 479.798,560.478 485.477,540.544C485.477,540.544 500.197,477.984 501.477,472.544C502.563,469.125 515.363,440.619 515.477,440.544C515.477,440.544 559.667,363.747 561.477,362.544C561.477,362.544 614.355,283.982 615.013,283.544C617.237,277.725 674.495,209.005 677.477,207.544C678.199,206.504 749.669,139.411 752.477,137.544C752.885,136.954 758.477,134.544 758.477,134.544C758.914,134.329 821.1,117.544 823.477,117.544L946.477,111.544C947.524,113.118 953.477,117.544 953.477,117.544C953.477,117.544 977.243,151.96 977.859,152.95L1003.45,117.544C1003.45,117.544 1009.4,113.118 1010.45,111.544L1133.45,117.544C1135.83,117.544 1198.01,134.329 1198.45,134.544C1198.45,134.544 1204.04,136.954 1204.45,137.544C1207.26,139.411 1278.73,206.504 1279.45,207.544C1282.43,209.005 1339.69,277.725 1341.91,283.544C1342.57,283.982 1395.45,362.544 1395.45,362.544C1397.26,363.747 1441.45,440.544 1441.45,440.544C1441.56,440.619 1454.36,469.125 1455.45,472.544C1456.73,477.984 1471.45,540.544 1471.45,540.544C1477.13,560.478 1485.75,615.692 1488.45,632.544L1491.45,660.544C1491.61,660.622 1494.45,685.544 1494.45,685.544C1494.43,689.499 1496.45,746.544 1496.45,746.544C1496.72,750.57 1489.45,812.544 1489.45,812.544C1485.6,825.779 1477.74,853.802 1476.45,854.544C1476.36,855.022 1468.48,871.951 1467.45,872.544C1466.25,874.361 1460.26,886.338 1458.45,887.544C1455.28,892.329 1438.62,908.293 1436.45,911.544C1433.98,913.183 1412.96,930.313 1410.45,931.544L1369.45,951.544C1366.43,953.32 1317.18,967.349 1308.45,968.544L1253.45,968.544C1252.22,966.702 1211.86,960.675 1210.45,958.544C1210.45,958.544 1174.9,949.23 1174.45,948.544C1174.45,948.544 1135.5,938.131 1134.45,936.544C1133.41,935.823 1102.04,920.57 1101.45,919.544C1098.51,917.59 1085.4,909.474 1083.58,906.71C1082.54,905.99 1042.98,873.857 1041.45,871.544C1038.97,869.895 1013.29,831.76 1011.45,830.544C1011.45,830.544 977.48,764.541 977.477,764.544Z" style="fill:rgb(0,174,149);"/>
        </g>
        <g transform="matrix(1,0,0,1,2099.81,3771.49)">
            <g transform="matrix(1,0,0,1,-53.9735,-2414.53)">
                <path d="M873.214,2806.81L873.214,2833.09C884.24,2834.8 895.048,2837.69 905.448,2841.73L918.589,2818.97C933.118,2824.99 946.795,2832.88 959.271,2842.46L946.129,2865.22C954.827,2872.2 962.739,2880.12 969.726,2888.81L992.487,2875.67C1002.06,2888.15 1009.96,2901.83 1015.98,2916.36L993.214,2929.5C997.252,2939.9 1000.15,2950.7 1001.85,2961.73L1028.13,2961.73C1030.19,2977.32 1030.19,2993.11 1028.13,3008.7L1001.85,3008.7C1000.15,3019.73 997.252,3030.54 993.214,3040.94L1015.98,3054.08C1009.96,3068.61 1002.06,3082.28 992.487,3094.76L969.726,3081.62C962.739,3090.32 954.827,3098.23 946.129,3105.22L959.271,3127.98C946.795,3137.55 933.118,3145.45 918.589,3151.47L905.448,3128.7C895.048,3132.74 884.24,3135.64 873.214,3137.34L873.214,3163.62C857.623,3165.68 841.83,3165.68 826.239,3163.62L826.239,3137.34C815.214,3135.64 804.406,3132.74 794.006,3128.7L780.865,3151.47C766.336,3145.45 752.659,3137.55 740.183,3127.98L753.324,3105.22C744.627,3098.23 736.715,3090.32 729.728,3081.62L706.966,3094.76C697.393,3082.28 689.497,3068.61 683.479,3054.08L706.24,3040.94C702.202,3030.54 699.306,3019.73 697.603,3008.7L671.321,3008.7C669.268,2993.11 669.268,2977.32 671.321,2961.73L697.603,2961.73C699.306,2950.7 702.202,2939.9 706.24,2929.5L683.479,2916.36C689.497,2901.83 697.393,2888.15 706.966,2875.67L729.728,2888.81C736.715,2880.12 744.627,2872.2 753.324,2865.22L740.183,2842.46C752.659,2832.88 766.336,2824.99 780.865,2818.97L794.006,2841.73C804.406,2837.69 815.214,2834.8 826.239,2833.09L826.239,2806.81C841.83,2804.76 857.623,2804.76 873.214,2806.81ZM849.727,2931.33C879.468,2931.33 903.614,2955.48 903.614,2985.22C903.614,3014.96 879.468,3039.1 849.727,3039.1C819.986,3039.1 795.84,3014.96 795.84,2985.22C795.84,2955.48 819.986,2931.33 849.727,2931.33Z" style="fill:white;"/>
            </g>
        </g>
        <g transform="matrix(1,0,0,1,2099.81,3771.49)">
            <g transform="matrix(0.732844,-0.0950617,0.0950617,0.732844,119.629,-1743.96)">
                <path d="M873.214,2806.81L873.214,2833.09C884.24,2834.8 895.048,2837.69 905.448,2841.73L918.589,2818.97C933.118,2824.99 946.795,2832.88 959.271,2842.46L946.129,2865.22C954.827,2872.2 962.739,2880.12 969.726,2888.81L992.487,2875.67C1002.06,2888.15 1009.96,2901.83 1015.98,2916.36L993.214,2929.5C997.252,2939.9 1000.15,2950.7 1001.85,2961.73L1028.13,2961.73C1030.19,2977.32 1030.19,2993.11 1028.13,3008.7L1001.85,3008.7C1000.15,3019.73 997.252,3030.54 993.214,3040.94L1015.98,3054.08C1009.96,3068.61 1002.06,3082.28 992.487,3094.76L969.726,3081.62C962.739,3090.32 954.827,3098.23 946.129,3105.22L959.271,3127.98C946.795,3137.55 933.118,3145.45 918.589,3151.47L905.448,3128.7C895.048,3132.74 884.24,3135.64 873.214,3137.34L873.214,3163.62C857.623,3165.68 841.83,3165.68 826.239,3163.62L826.239,3137.34C815.214,3135.64 804.406,3132.74 794.006,3128.7L780.865,3151.47C766.336,3145.45 752.659,3137.55 740.183,3127.98L753.324,3105.22C744.627,3098.23 736.715,3090.32 729.728,3081.62L706.966,3094.76C697.393,3082.28 689.497,3068.61 683.479,3054.08L706.24,3040.94C702.202,3030.54 699.306,3019.73 697.603,3008.7L671.321,3008.7C669.268,2993.11 669.268,2977.32 671.321,2961.73L697.603,2961.73C699.306,2950.7 702.202,2939.9 706.24,2929.5L683.479,2916.36C689.497,2901.83 697.393,2888.15 706.966,2875.67L729.728,2888.81C736.715,2880.12 744.627,2872.2 753.324,2865.22L740.183,2842.46C752.659,2832.88 766.336,2824.99 780.865,2818.97L794.006,2841.73C804.406,2837.69 815.214,2834.8 826.239,2833.09L826.239,2806.81C841.83,2804.76 857.623,2804.76 873.214,2806.81ZM849.727,2931.33C879.468,2931.33 903.614,2955.48 903.614,2985.22C903.614,3014.96 879.468,3039.1 849.727,3039.1C819.986,3039.1 795.84,3014.96 795.84,2985.22C795.84,2955.48 819.986,2931.33 849.727,2931.33Z" style="fill:white;"/>
            </g>
        </g>
        <g transform="matrix(1,0,0,1,2099.81,3771.49)">
            <g transform="matrix(0.551997,-0.100864,0.100864,0.551997,437.129,-1040.52)">
                <path d="M873.214,2806.81L873.214,2833.09C884.24,2834.8 895.048,2837.69 905.448,2841.73L918.589,2818.97C933.118,2824.99 946.795,2832.88 959.271,2842.46L946.129,2865.22C954.827,2872.2 962.739,2880.12 969.726,2888.81L992.487,2875.67C1002.06,2888.15 1009.96,2901.83 1015.98,2916.36L993.214,2929.5C997.252,2939.9 1000.15,2950.7 1001.85,2961.73L1028.13,2961.73C1030.19,2977.32 1030.19,2993.11 1028.13,3008.7L1001.85,3008.7C1000.15,3019.73 997.252,3030.54 993.214,3040.94L1015.98,3054.08C1009.96,3068.61 1002.06,3082.28 992.487,3094.76L969.726,3081.62C962.739,3090.32 954.827,3098.23 946.129,3105.22L959.271,3127.98C946.795,3137.55 933.118,3145.45 918.589,3151.47L905.448,3128.7C895.048,3132.74 884.24,3135.64 873.214,3137.34L873.214,3163.62C857.623,3165.68 841.83,3165.68 826.239,3163.62L826.239,3137.34C815.214,3135.64 804.406,3132.74 794.006,3128.7L780.865,3151.47C766.336,3145.45 752.659,3137.55 740.183,3127.98L753.324,3105.22C744.627,3098.23 736.715,3090.32 729.728,3081.62L706.966,3094.76C697.393,3082.28 689.497,3068.61 683.479,3054.08L706.24,3040.94C702.202,3030.54 699.306,3019.73 697.603,3008.7L671.321,3008.7C669.268,2993.11 669.268,2977.32 671.321,2961.73L697.603,2961.73C699.306,2950.7 702.202,2939.9 706.24,2929.5L683.479,2916.36C689.497,2901.83 697.393,2888.15 706.966,2875.67L729.728,2888.81C736.715,2880.12 744.627,2872.2 753.324,2865.22L740.183,2842.46C752.659,2832.88 766.336,2824.99 780.865,2818.97L794.006,2841.73C804.406,2837.69 815.214,2834.8 826.239,2833.09L826.239,2806.81C841.83,2804.76 857.623,2804.76 873.214,2806.81ZM849.727,2931.33C879.468,2931.33 903.614,2955.48 903.614,2985.22C903.614,3014.96 879.468,3039.1 849.727,3039.1C819.986,3039.1 795.84,3014.96 795.84,2985.22C795.84,2955.48 819.986,2931.33 849.727,2931.33Z" style="fill:white;"/>
            </g>
        </g>
        <g transform="matrix(1,0,0,1,2099.81,3771.49)">
            <path d="M977.477,764.544C977.475,764.527 945.477,830.544 945.477,830.544C943.639,831.76 917.956,869.895 915.477,871.544C913.946,873.857 874.39,905.99 873.35,906.71C871.522,909.474 858.415,917.59 855.477,919.544C854.885,920.57 823.517,935.823 822.477,936.544C821.427,938.131 782.477,948.544 782.477,948.544C782.022,949.23 746.477,958.544 746.477,958.544C745.066,960.675 704.708,966.702 703.477,968.544L648.477,968.544C639.747,967.349 590.493,953.32 587.477,951.544L546.477,931.544C543.966,930.313 522.942,913.183 520.477,911.544C518.305,908.293 501.644,892.329 498.477,887.544C496.664,886.338 490.679,874.361 489.477,872.544C488.451,871.951 480.567,855.022 480.477,854.544C479.192,853.802 471.323,825.779 467.477,812.544C467.477,812.544 460.58,750.465 460.477,746.544C460.477,746.544 462.393,687.747 462.477,685.544C462.477,685.544 465.316,660.622 465.477,660.544L468.477,632.544C471.176,617.177 479.798,560.478 485.477,540.544C485.477,540.544 500.197,477.984 501.477,472.544C502.563,469.125 515.363,440.619 515.477,440.544C515.477,440.544 559.667,363.747 561.477,362.544C561.477,362.544 614.355,283.982 615.013,283.544C617.237,277.725 674.495,209.005 677.477,207.544C678.199,206.504 749.669,139.411 752.477,137.544C752.885,136.954 758.477,134.544 758.477,134.544C758.914,134.329 821.1,117.544 823.477,117.544L946.477,111.544C947.524,113.118 953.477,117.544 953.477,117.544C953.477,117.544 977.243,151.96 977.859,152.95L1003.45,117.544C1003.45,117.544 1009.4,113.118 1010.45,111.544L1133.45,117.544C1135.83,117.544 1198.01,134.329 1198.45,134.544C1198.45,134.544 1204.04,136.954 1204.45,137.544C1207.26,139.411 1278.73,206.504 1279.45,207.544C1282.43,209.005 1339.69,277.725 1341.91,283.544C1342.57,283.982 1395.45,362.544 1395.45,362.544C1397.26,363.747 1441.45,440.544 1441.45,440.544C1441.56,440.619 1454.36,469.125 1455.45,472.544C1456.73,477.984 1471.45,540.544 1471.45,540.544C1477.13,560.478 1485.75,615.692 1488.45,632.544L1491.45,660.544C1491.61,660.622 1494.45,685.544 1494.45,685.544C1494.43,689.499 1496.45,746.544 1496.45,746.544C1496.72,750.57 1489.45,812.544 1489.45,812.544C1485.6,825.779 1477.74,853.802 1476.45,854.544C1476.36,855.022 1468.48,871.951 1467.45,872.544C1466.25,874.361 1460.26,886.338 1458.45,887.544C1455.28,892.329 1438.62,908.293 1436.45,911.544C1433.98,913.183 1412.96,930.313 1410.45,931.544L1369.45,951.544C1366.43,953.32 1317.18,967.349 1308.45,968.544L1253.45,968.544C1252.22,966.702 1211.86,960.675 1210.45,958.544C1210.45,958.544 1174.9,949.23 1174.45,948.544C1174.45,948.544 1135.5,938.131 1134.45,936.544C1133.41,935.823 1102.04,920.57 1101.45,919.544C1098.51,917.59 1085.4,909.474 1083.58,906.71C1082.54,905.99 1042.98,873.857 1041.45,871.544C1038.97,869.895 1013.29,831.76 1011.45,830.544C1011.45,830.544 977.48,764.541 977.477,764.544Z" style="fill:rgb(0,174,149);"/>
        </g>
        <g transform="matrix(1,0,0,1,2099.81,3771.49)">
            <g transform="matrix(1,0,0,1,-53.9735,-2414.53)">
                <path d="M873.214,2806.81L873.214,2833.09C884.24,2834.8 895.048,2837.69 905.448,2841.73L918.589,2818.97C933.118,2824.99 946.795,2832.88 959.271,2842.46L946.129,2865.22C954.827,2872.2 962.739,2880.12 969.726,2888.81L992.487,2875.67C1002.06,2888.15 1009.96,2901.83 1015.98,2916.36L993.214,2929.5C997.252,2939.9 1000.15,2950.7 1001.85,2961.73L1028.13,2961.73C1030.19,2977.32 1030.19,2993.11 1028.13,3008.7L1001.85,3008.7C1000.15,3019.73 997.252,3030.54 993.214,3040.94L1015.98,3054.08C1009.96,3068.61 1002.06,3082.28 992.487,3094.76L969.726,3081.62C962.739,3090.32 954.827,3098.23 946.129,3105.22L959.271,3127.98C946.795,3137.55 933.118,3145.45 918.589,3151.47L905.448,3128.7C895.048,3132.74 884.24,3135.64 873.214,3137.34L873.214,3163.62C857.623,3165.68 841.83,3165.68 826.239,3163.62L826.239,3137.34C815.214,3135.64 804.406,3132.74 794.006,3128.7L780.865,3151.47C766.336,3145.45 752.659,3137.55 740.183,3127.98L753.324,3105.22C744.627,3098.23 736.715,3090.32 729.728,3081.62L706.966,3094.76C697.393,3082.28 689.497,3068.61 683.479,3054.08L706.24,3040.94C702.202,3030.54 699.306,3019.73 697.603,3008.7L671.321,3008.7C669.268,2993.11 669.268,2977.32 671.321,2961.73L697.603,2961.73C699.306,2950.7 702.202,2939.9 706.24,2929.5L683.479,2916.36C689.497,2901.83 697.393,2888.15 706.966,2875.67L729.728,2888.81C736.715,2880.12 744.627,2872.2 753.324,2865.22L740.183,2842.46C752.659,2832.88 766.336,2824.99 780.865,2818.97L794.006,2841.73C804.406,2837.69 815.214,2834.8 826.239,2833.09L826.239,2806.81C841.83,2804.76 857.623,2804.76 873.214,2806.81ZM849.727,2931.33C879.468,2931.33 903.614,2955.48 903.614,2985.22C903.614,3014.96 879.468,3039.1 849.727,3039.1C819.986,3039.1 795.84,3014.96 795.84,2985.22C795.84,2955.48 819.986,2931.33 849.727,2931.33Z" style="fill:white;"/>
            </g>
        </g>
        <g transform="matrix(1,0,0,1,2099.81,3771.49)">
            <g transform="matrix(0.732844,-0.0950617,0.0950617,0.732844,119.629,-1743.96)">
                <path d="M873.214,2806.81L873.214,2833.09C884.24,2834.8 895.048,2837.69 905.448,2841.73L918.589,2818.97C933.118,2824.99 946.795,2832.88 959.271,2842.46L946.129,2865.22C954.827,2872.2 962.739,2880.12 969.726,2888.81L992.487,2875.67C1002.06,2888.15 1009.96,2901.83 1015.98,2916.36L993.214,2929.5C997.252,2939.9 1000.15,2950.7 1001.85,2961.73L1028.13,2961.73C1030.19,2977.32 1030.19,2993.11 1028.13,3008.7L1001.85,3008.7C1000.15,3019.73 997.252,3030.54 993.214,3040.94L1015.98,3054.08C1009.96,3068.61 1002.06,3082.28 992.487,3094.76L969.726,3081.62C962.739,3090.32 954.827,3098.23 946.129,3105.22L959.271,3127.98C946.795,3137.55 933.118,3145.45 918.589,3151.47L905.448,3128.7C895.048,3132.74 884.24,3135.64 873.214,3137.34L873.214,3163.62C857.623,3165.68 841.83,3165.68 826.239,3163.62L826.239,3137.34C815.214,3135.64 804.406,3132.74 794.006,3128.7L780.865,3151.47C766.336,3145.45 752.659,3137.55 740.183,3127.98L753.324,3105.22C744.627,3098.23 736.715,3090.32 729.728,3081.62L706.966,3094.76C697.393,3082.28 689.497,3068.61 683.479,3054.08L706.24,3040.94C702.202,3030.54 699.306,3019.73 697.603,3008.7L671.321,3008.7C669.268,2993.11 669.268,2977.32 671.321,2961.73L697.603,2961.73C699.306,2950.7 702.202,2939.9 706.24,2929.5L683.479,2916.36C689.497,2901.83 697.393,2888.15 706.966,2875.67L729.728,2888.81C736.715,2880.12 744.627,2872.2 753.324,2865.22L740.183,2842.46C752.659,2832.88 766.336,2824.99 780.865,2818.97L794.006,2841.73C804.406,2837.69 815.214,2834.8 826.239,2833.09L826.239,2806.81C841.83,2804.76 857.623,2804.76 873.214,2806.81ZM849.727,2931.33C879.468,2931.33 903.614,2955.48 903.614,2985.22C903.614,3014.96 879.468,3039.1 849.727,3039.1C819.986,3039.1 795.84,3014.96 795.84,2985.22C795.84,2955.48 819.986,2931.33 849.727,2931.33Z" style="fill:white;"/>
            </g>
        </g>
        <g transform="matrix(1,0,0,1,2099.81,3771.49)">
            <g transform="matrix(0.551997,-0.100864,0.100864,0.551997,437.129,-1040.52)">
                <path d="M873.214,2806.81L873.214,2833.09C884.24,2834.8 895.048,2837.69 905.448,2841.73L918.589,2818.97C933.118,2824.99 946.795,2832.88 959.271,2842.46L946.129,2865.22C954.827,2872.2 962.739,2880.12 969.726,2888.81L992.487,2875.67C1002.06,2888.15 1009.96,2901.83 1015.98,2916.36L993.214,2929.5C997.252,2939.9 1000.15,2950.7 1001.85,2961.73L1028.13,2961.73C1030.19,2977.32 1030.19,2993.11 1028.13,3008.7L1001.85,3008.7C1000.15,3019.73 997.252,3030.54 993.214,3040.94L1015.98,3054.08C1009.96,3068.61 1002.06,3082.28 992.487,3094.76L969.726,3081.62C962.739,3090.32 954.827,3098.23 946.129,3105.22L959.271,3127.98C946.795,3137.55 933.118,3145.45 918.589,3151.47L905.448,3128.7C895.048,3132.74 884.24,3135.64 873.214,3137.34L873.214,3163.62C857.623,3165.68 841.83,3165.68 826.239,3163.62L826.239,3137.34C815.214,3135.64 804.406,3132.74 794.006,3128.7L780.865,3151.47C766.336,3145.45 752.659,3137.55 740.183,3127.98L753.324,3105.22C744.627,3098.23 736.715,3090.32 729.728,3081.62L706.966,3094.76C697.393,3082.28 689.497,3068.61 683.479,3054.08L706.24,3040.94C702.202,3030.54 699.306,3019.73 697.603,3008.7L671.321,3008.7C669.268,2993.11 669.268,2977.32 671.321,2961.73L697.603,2961.73C699.306,2950.7 702.202,2939.9 706.24,2929.5L683.479,2916.36C689.497,2901.83 697.393,2888.15 706.966,2875.67L729.728,2888.81C736.715,2880.12 744.627,2872.2 753.324,2865.22L740.183,2842.46C752.659,2832.88 766.336,2824.99 780.865,2818.97L794.006,2841.73C804.406,2837.69 815.214,2834.8 826.239,2833.09L826.239,2806.81C841.83,2804.76 857.623,2804.76 873.214,2806.81ZM849.727,2931.33C879.468,2931.33 903.614,2955.48 903.614,2985.22C903.614,3014.96 879.468,3039.1 849.727,3039.1C819.986,3039.1 795.84,3014.96 795.84,2985.22C795.84,2955.48 819.986,2931.33 849.727,2931.33Z" style="fill:white;"/>
            </g>
        </g>
    </g>
</svg>
